<svg xmlns="http://www.w3.org/2000/svg" width="183.876" height="74.377" viewBox="0 0 183.876 74.377">
  <g id="Group_3" data-name="Group 3" transform="translate(-6218 -3789.433)">
    <g id="m1" transform="translate(6245.571 3792.215)">
      <path id="bottom" d="M800,3438.663,846.442,3369l46.442,69.662Z" transform="translate(-800 -3369)" fill="#519fa4" stroke="#707070" stroke-linecap="round" stroke-width="3"/>
      <path id="top" d="M760,3300.969s6.327,5.5,11.508,0,11.508,0,11.508,0,6.191,4.93,11.508,0,11.508,0,11.508,0L783.015,3269Z" transform="translate(-736.593 -3267.924)" fill="#65d1a2" stroke="#707070" stroke-width="3"/>
    </g>
    <g id="m2" transform="translate(6306.19 3792)">
      <path id="Path_3" data-name="Path 3" d="M800,3438.663,846.442,3369l46.442,69.662Z" transform="translate(-800 -3368.756)" fill="#88b2b4" stroke="#707070" stroke-linecap="round" stroke-width="3"/>
      <path id="top-2" data-name="top" d="M760,3300.969s6.327,5.5,11.508,0,11.508,0,11.508,0,6.191,4.93,11.508,0,11.508,0,11.508,0L783.015,3269Z" transform="translate(-736.554 -3269)" fill="#65d1a2" stroke="#707070" stroke-width="3"/>
    </g>
    <g id="c2" transform="translate(6243.812 3794.366)" fill="#fff">
      <path d="M 71.53616333007812 28.61362266540527 L 55.92547607421875 28.61362266540527 L 12.90594387054443 28.61362266540527 L 1.597079277038574 28.61362266540527 C 1.729362845420837 27.6024284362793 1.996421217918396 26.61852645874023 2.395709991455078 25.67449951171875 C 2.970032215118408 24.31667709350586 3.792665719985962 23.09668922424316 4.840743541717529 22.04842185974121 C 5.888432502746582 21.00075531005859 7.108421325683594 20.17814445495605 8.466743469238281 19.6035327911377 C 9.872010231018066 19.00921058654785 11.36562156677246 18.70783424377441 12.90594387054443 18.70783424377441 C 12.95118808746338 18.70783424377441 12.9963321685791 18.70811080932617 13.04149913787842 18.70862197875977 L 14.79122161865234 18.72851181030273 L 14.54343223571777 16.99629974365234 C 14.45219898223877 16.35858917236328 14.40594387054443 15.70608901977539 14.40594387054443 15.05693340301514 C 14.40594387054443 11.43571090698242 15.81608772277832 8.031255722045898 18.37662124633789 5.470700263977051 C 20.93713188171387 2.910155773162842 24.34152030944824 1.500000238418579 27.96264266967773 1.500000238418579 C 33.39884185791016 1.500000238418579 38.2936897277832 4.729989051818848 40.43284225463867 9.728789329528809 L 40.97373199462891 10.99276733398438 L 42.27993392944336 10.56375598907471 C 43.20916748046875 10.25856685638428 44.18168640136719 10.10382270812988 45.17049789428711 10.10382270812988 C 49.81223297119141 10.10382270812988 53.7582893371582 13.5693998336792 54.3493537902832 18.1650447845459 L 54.58811187744141 20.02145576477051 L 56.34793090820312 19.384033203125 C 57.58671188354492 18.93534469604492 58.89200973510742 18.70783424377441 60.22757720947266 18.70783424377441 C 61.76776504516602 18.70783424377441 63.26132202148438 19.00921058654785 64.66673278808594 19.60359001159668 C 66.02459716796875 20.17793273925781 67.24456787109375 21.00061225891113 68.29267883300781 22.0487117767334 C 69.34050750732422 23.09655570983887 70.16312408447266 24.31646728515625 70.73765563964844 25.6745777130127 C 71.1368408203125 26.61845779418945 71.40385437011719 27.602294921875 71.53616333007812 28.61362266540527 Z" stroke="none"/>
      <path d="M 69.6719970703125 27.11362266540527 C 69.58027648925781 26.82493209838867 69.47495269775391 26.53983688354492 69.35618591308594 26.25899887084961 C 68.85726928710938 25.07964706420898 68.14259338378906 24.01996421813965 67.23203277587891 23.10938835144043 C 66.32115936279297 22.19852828979492 65.26144409179688 21.48379898071289 64.08244323730469 20.98510551452637 C 62.86292266845703 20.46935272216797 61.56597137451172 20.20783424377441 60.22758483886719 20.20783424377441 C 59.06669998168945 20.20783424377441 57.93326568603516 20.40517616271973 56.85878372192383 20.79437637329102 L 53.339111328125 22.06924629211426 L 52.86159515380859 18.35638809204102 C 52.36648941040039 14.50679969787598 49.06004333496094 11.60382270812988 45.17049026489258 11.60382270812988 C 44.34094619750977 11.60382270812988 43.52590179443359 11.73336410522461 42.74800872802734 11.98885822296143 L 40.1356086730957 12.84688186645508 L 39.05380630493164 10.31892871856689 C 37.15118408203125 5.872846603393555 32.79764175415039 2.999999523162842 27.96264266967773 2.999999523162842 C 24.74218368530273 2.999999523162842 21.7144775390625 4.254128932952881 19.43727684020996 6.531352519989014 C 17.16005325317383 8.808599472045898 15.9059362411499 11.83637619018555 15.9059362411499 15.05692863464355 C 15.9059362411499 15.63523483276367 15.94711303710938 16.21625900268555 16.02831268310547 16.78387069702148 L 16.5240421295166 20.2490234375 L 13.02384185791016 20.20852851867676 C 12.98456001281738 20.20807075500488 12.94528961181641 20.20783424377441 12.9059362411499 20.20783424377441 C 11.56743049621582 20.20783424377441 10.27040672302246 20.46935272216797 9.051136016845703 20.98499870300293 C 7.871583461761475 21.48398780822754 6.81184196472168 22.19866943359375 5.901501178741455 23.10901069641113 C 4.990653991699219 24.02000045776367 4.275936126708984 25.07976341247559 3.777218580245972 26.25882339477539 C 3.658393383026123 26.53975868225098 3.553041934967041 26.82488441467285 3.461297750473022 27.11362266540527 L 12.9059362411499 27.11362266540527 L 55.92547607421875 27.11362266540527 L 69.6719970703125 27.11362266540527 M 73.13333892822266 30.11362266540527 L 55.92547607421875 30.11362266540527 L 12.9059362411499 30.11362266540527 L 6.825884611316724e-06 30.11362266540527 C 6.825884611316724e-06 28.37116432189941 0.3413009345531464 26.68108177185059 1.014206767082214 25.09016418457031 C 1.66427743434906 23.55327033996582 2.59485387802124 22.17319869995117 3.780006885528564 20.98785781860352 C 4.965347766876221 19.80251693725586 6.345630168914795 18.87212944030762 7.882324695587158 18.22205924987793 C 9.473430633544922 17.54914093017578 11.16365432739258 17.20783424377441 12.9059362411499 17.20783424377441 C 12.95687770843506 17.20783424377441 13.00770092010498 17.2081413269043 13.05854797363281 17.2087287902832 C 12.95804214477539 16.50618743896484 12.9059362411499 15.78727054595947 12.9059362411499 15.05692863464355 C 12.9059362411499 6.741140842437744 19.64706611633301 -4.320032473970059e-07 27.96264266967773 -4.320032473970059e-07 C 34.1771354675293 -4.320032473970059e-07 39.51247787475586 3.765387773513794 41.8118782043457 9.13865852355957 C 42.86856079101562 8.791599273681641 43.99771118164062 8.603822708129883 45.17049026489258 8.603822708129883 C 50.64087677001953 8.603822708129883 55.15732574462891 12.68830585479736 55.83708953857422 17.97370529174805 C 57.24077224731445 17.46527099609375 58.71457290649414 17.20783424377441 60.22758483886719 17.20783424377441 C 61.96987915039062 17.20783424377441 63.6599006652832 17.54914093017578 65.25100708007812 18.22205924987793 C 66.78790283203125 18.87212944030762 68.16798400878906 19.8027172088623 69.35333251953125 20.98805809020996 C 70.53847503662109 22.17319869995117 71.46905517578125 23.55350494384766 72.11912536621094 25.09016418457031 C 72.79203033447266 26.68127059936523 73.13313293457031 28.37131690979004 73.13333892822266 30.11338806152344 L 73.13333892822266 30.11362266540527 Z" stroke="none" fill="#707070"/>
    </g>
    <g id="c1" transform="translate(6218 3845.99)" fill="#fff">
      <path d="M 28.46124076843262 15.70783233642578 L 27.65187072753906 15.70783233642578 L 26.35090065002441 15.70783233642578 L 1.515449285507202 15.70783233642578 C 1.505166172981262 15.49091339111328 1.500001072883606 15.27373313903809 1.500001072883606 15.05693244934082 C 1.500001072883606 13.22593212127686 1.858221054077148 11.45063209533691 2.564711093902588 9.780342102050781 C 3.247311115264893 8.166341781616211 4.225050926208496 6.716341972351074 5.470800876617432 5.470561981201172 C 6.716280937194824 4.225101947784424 8.166231155395508 3.247421979904175 9.780350685119629 2.564712047576904 C 11.45058155059814 1.858212113380432 13.22586154937744 1.500002026557922 15.05689144134521 1.500002026557922 C 16.88797187805176 1.500002026557922 18.66317176818848 1.858212113380432 20.33317184448242 2.564671993255615 C 21.94748115539551 3.247392177581787 23.39747047424316 4.225061893463135 24.64301109313965 5.470582008361816 C 25.78874015808105 6.61649227142334 26.71001052856445 7.938432216644287 27.38113021850586 9.399581909179688 L 28.37090110778809 11.55451202392578 L 29.89394187927246 9.736902236938477 C 30.06970024108887 9.527152061462402 30.25763130187988 9.322002410888672 30.45251083374023 9.127132415771484 C 31.30284118652344 8.27683162689209 32.29278945922852 7.609302043914795 33.39488983154297 7.143072128295898 C 34.53485107421875 6.660871982574463 35.74666213989258 6.416362285614014 36.99662017822266 6.416362285614014 C 38.24671173095703 6.416362285614014 39.45859146118164 6.660871982574463 40.59860229492188 7.143092155456543 C 41.70064926147461 7.609302043914795 42.69060134887695 8.27683162689209 43.54090118408203 9.127101898193359 C 44.39139938354492 9.977602005004883 45.05891036987305 10.96750164031982 45.52487182617188 12.0692720413208 C 46.00710296630859 13.2093620300293 46.25160217285156 14.42120170593262 46.25160217285156 15.67117214202881 C 46.25160217285156 15.68333053588867 46.2515754699707 15.69552135467529 46.25152969360352 15.70768165588379 L 29.96124076843262 15.70768165588379 L 28.46124076843262 15.70768165588379 L 28.46124076843262 15.70783233642578 Z" stroke="none"/>
      <path d="M 26.96124076843262 14.20783233642578 L 26.96124076843262 14.20768165588379 L 27.93887710571289 14.20768165588379 L 26.01803016662598 10.02566242218018 C 25.4213809967041 8.726652145385742 24.60184097290039 7.550891876220703 23.58235168457031 6.531251907348633 C 22.47411155700684 5.423012256622314 21.18439102172852 4.55330228805542 19.74876022338867 3.946151971817017 C 18.26468086242676 3.318332195281982 16.68611145019531 3.000002145767212 15.05689144134521 3.000002145767212 C 13.42771148681641 3.000002145767212 11.84904098510742 3.318341970443726 10.36468124389648 3.94621205329895 C 8.929350852966309 4.553312301635742 7.639661312103271 5.423042297363281 6.531471252441406 6.531211853027344 C 5.423001289367676 7.639702320098877 4.553211212158203 8.929431915283203 3.946211099624634 10.3646821975708 C 3.428065538406372 11.58968448638916 3.120705604553223 12.87901592254639 3.029110908508301 14.20783233642578 L 26.35090065002441 14.20783233642578 L 26.96124076843262 14.20783233642578 M 44.61461639404297 14.20768165588379 C 44.51325607299805 13.67544078826904 44.35590362548828 13.15607643127441 44.14335250854492 12.65355205535889 C 43.75300979614258 11.7306022644043 43.19345092773438 10.90097236633301 42.48025131225586 10.18777179718018 C 41.7672004699707 9.474752426147461 40.93748092651367 8.915152549743652 40.01423263549805 8.524581909179688 C 39.06013107299805 8.120991706848145 38.04486083984375 7.916362285614014 36.99662017822266 7.916362285614014 C 35.94850921630859 7.916362285614014 34.93331146240234 8.120991706848145 33.97931289672852 8.524541854858398 C 33.05596160888672 8.915152549743652 32.22624206542969 9.474752426147461 31.51313018798828 10.18783187866211 C 31.3492317199707 10.35172176361084 31.19128036499023 10.52414226531982 31.04367065429688 10.70029163360596 L 28.10470390319824 14.20768165588379 L 29.96124076843262 14.20768165588379 L 44.61461639404297 14.20768165588379 M 26.45691108703613 17.81978225708008 L 26.45652198791504 17.81978225708008 C 26.41546058654785 17.61732292175293 26.38024139404297 17.41324234008789 26.35090065002441 17.20783233642578 L 0.1525510847568512 17.20783233642578 C 0.05130108818411827 16.49990272521973 1.086425754692755e-06 15.77624225616455 1.086425754692755e-06 15.05693244934082 C 1.086425754692755e-06 13.02425193786621 0.3980210721492767 11.05235195159912 1.183211088180542 9.196002006530762 C 1.941501140594482 7.403022289276123 3.027141094207764 5.792932033538818 4.410130977630615 4.409912109375 C 5.792931079864502 3.027132034301758 7.403201103210449 1.941502094268799 9.19602108001709 1.183202028274536 C 11.05233097076416 0.3980020880699158 13.02422142028809 2.082214450638276e-06 15.05689144134521 2.082214450638276e-06 C 17.08957099914551 2.082214450638276e-06 19.06146049499512 0.3980020880699158 20.91758155822754 1.183202028274536 C 22.71060180664062 1.941502094268799 24.32086181640625 3.027132034301758 25.70366096496582 4.409912109375 C 26.9769115447998 5.683362007141113 27.99827194213867 7.149432182312012 28.74422073364258 8.773502349853516 C 28.94871139526367 8.529461860656738 29.16469192504883 8.293612480163574 29.39190101623535 8.066422462463379 C 30.37959098815918 7.078762054443359 31.52970123291016 6.303421974182129 32.81047058105469 5.76160192489624 C 34.13636016845703 5.200752258300781 35.5449104309082 4.916362285614014 36.99662017822266 4.916362285614014 C 38.44853973388672 4.916362285614014 39.85708236694336 5.200752258300781 41.1829719543457 5.76160192489624 C 42.46374130249023 6.303421974182129 43.61384963989258 7.078762054443359 44.60153961181641 8.066422462463379 C 45.58922958374023 9.054121971130371 46.36474227905273 10.20424175262451 46.90640258789062 11.48499202728271 C 47.46722030639648 12.81089210510254 47.75160217285156 14.21926212310791 47.75160217285156 15.67117214202881 C 47.75160217285156 16.18550300598145 47.71501922607422 16.702392578125 47.6428108215332 17.20768165588379 L 29.96124076843262 17.20768165588379 L 29.96124076843262 17.20783233642578 L 26.45691108703613 17.20783233642578 L 26.45691108703613 17.81978225708008 Z" stroke="none" fill="#707070"/>
    </g>
  </g>
</svg>
