<svg xmlns="http://www.w3.org/2000/svg" width="812.126" height="727.862" viewBox="0 0 812.126 727.862">
  <defs>
    <style>
      .cls-1, .cls-3, .cls-4, .cls-5, .cls-7 {
        fill: none;
      }

      .cls-1, .cls-3 {
        stroke: #e6e6e6;
      }

      .cls-1, .cls-3, .cls-5 {
        stroke-miterlimit: 10;
      }

      .cls-1, .cls-3, .cls-4 {
        stroke-width: 20px;
      }

      .cls-2 {
        fill: #c9cdfc;
      }

      .cls-3 {
        stroke-dasharray: 20;
      }

      .cls-4, .cls-5, .cls-6 {
        stroke: #fff;
      }

      .cls-4 {
        stroke-linecap: square;
        stroke-linejoin: bevel;
        stroke-dasharray: 40;
      }

      .cls-5 {
        stroke-width: 5px;
        stroke-dasharray: 10;
      }

      .cls-6, .cls-8 {
        fill: #fff;
      }
    </style>
  </defs>
  <g id="jlogo" transform="translate(0 0.856)">
    <g id="Layer_1" data-name="Layer 1">
      <path id="Path_7" data-name="Path 7" class="cls-1" d="M799.17,607.43H81.92v-443H799.17Z"/>
      <g id="line">
        <path id="Path_8" data-name="Path 8" class="cls-2" d="M528.49,43.17c.35,2.5.74,5,1,7.5l1,7.5c.32,2.5.67,5,.92,7.5l.82,7.5H526.3l.19-30Z"/>
        <path id="Path_9" data-name="Path 9" class="cls-2" d="M535.32,103.17l1.3,15c.46,5,.79,10,1.19,15H526c0-10,.09-20,.15-30Z"/>
        <path id="Path_10" data-name="Path 10" class="cls-2" d="M539.9,163.17c.35,5,.59,10,.88,15l.43,7.5c.13,2.5.3,5,.41,7.5H525.83l.07-30Z"/>
        <path id="Path_11" data-name="Path 11" class="cls-2" d="M543,223.17l.55,15c.16,5,.4,10,.5,15H525.7l.07-30Z"/>
        <path id="Path_12" data-name="Path 12" class="cls-2" d="M544.78,283.17l.47,30H525.57l.06-30Z"/>
        <path id="Path_13" data-name="Path 13" class="cls-2" d="M545.44,343.17v15l-.07,15H525.53c0-10-.07-20,0-30Z"/>
        <path id="Path_14" data-name="Path 14" class="cls-2" d="M545.08,403.17l-.24,15c-.05,2.5-.06,5-.14,7.5l-.19,7.5H525.66l-.06-30Z"/>
        <path id="Path_15" data-name="Path 15" class="cls-2" d="M543.66,463.17l-.54,15c-.17,5-.36,10-.61,15H525.79l-.07-30Z"/>
        <path id="Path_16" data-name="Path 16" class="cls-2" d="M541.03,523.17l-.84,15-.98,15H525.92l-.07-30Z"/>
        <path id="Path_17" data-name="Path 17" class="cls-2" d="M537,583.17l-1.28,15c-.41,5-.93,10-1.39,15h-8.19l-.19-30Z"/>
        <path id="Path_18" data-name="Path 18" class="cls-2" d="M531.15,643.17l-1.29,10.13-.64,5.07-.73,5.07h-2l-.13-20.27Z"/>
      </g>
      <line id="Line_4" data-name="Line 4" class="cls-3" x2="620.28" transform="translate(0 439.41)"/>
      <path id="Path_19" data-name="Path 19" class="cls-4" d="M405.89,48.87,94.66,587.94H717.13Z"/>
      <path id="Path_20" data-name="Path 20" class="cls-5" d="M575.55,188.94,343.44,567.41H807.66Z"/>
      <g id="circle">
        <path id="Path_21" data-name="Path 21" class="cls-2" d="M595.66,545.94a177.639,177.639,0,0,1-1.07,20h-.11a177.436,177.436,0,0,0,1.18-20Z"/>
        <path id="Path_22" data-name="Path 22" class="cls-2" d="M591.28,585.64a176.581,176.581,0,0,1-5.45,19.26l-.52-.19a173.766,173.766,0,0,0,5.75-19.12Z"/>
        <path id="Path_23" data-name="Path 23" class="cls-2" d="M578.23,623.43a176.6,176.6,0,0,1-9.6,17.62l-1.22-.78a175.919,175.919,0,0,0,10-17.23Z"/>
        <path id="Path_24" data-name="Path 24" class="cls-2" d="M557.11,657.51a179.741,179.741,0,0,1-13.28,15.12l-2-2a177.153,177.153,0,0,0,13.65-14.42Z"/>
        <path id="Path_25" data-name="Path 25" class="cls-2" d="M528.92,686.23a175.583,175.583,0,0,1-16.37,11.89l-2.36-3.87a173.9,173.9,0,0,0,16.5-10.87Z"/>
        <path id="Path_26" data-name="Path 26" class="cls-2" d="M494.92,708.16a181.54,181.54,0,0,1-18.7,8l-2.1-6.31a165.728,165.728,0,0,0,18.46-6.74Z"/>
        <path id="Path_27" data-name="Path 27" class="cls-2" d="M456.67,722a182.582,182.582,0,0,1-20.16,3.62l-.83-8.95a173.521,173.521,0,0,0,19.39-2.32Z"/>
        <path id="Path_28" data-name="Path 28" class="cls-2" d="M416,727a181.664,181.664,0,0,1-20.58-1l1.49-11.22a173.018,173.018,0,0,0,19.29,2.05Z"/>
        <path id="Path_29" data-name="Path 29" class="cls-2" d="M375,722.68a181.117,181.117,0,0,1-20-5.65l4.83-12.78a167.669,167.669,0,0,0,18.18,6.32Z"/>
        <path id="Path_30" data-name="Path 30" class="cls-2" d="M335.84,709.06a177.32,177.32,0,0,1-18.22-10.16l8.73-13.06A174.739,174.739,0,0,0,342.57,696Z"/>
        <path id="Path_31" data-name="Path 31" class="cls-2" d="M300.65,686.68a176.716,176.716,0,0,1-15.47-14.13l12.67-11.93A176.258,176.258,0,0,0,311.39,674Z"/>
        <path id="Path_32" data-name="Path 32" class="cls-2" d="M271.38,656.72a186.719,186.719,0,0,1-11.85-17.38l16.14-9.44a168.6,168.6,0,0,0,10.24,15.94Z"/>
        <path id="Path_33" data-name="Path 33" class="cls-2" d="M249.72,620.68a185.931,185.931,0,0,1-7.54-19.7l18.66-5.78a164.906,164.906,0,0,0,6.46,17.74Z"/>
        <path id="Path_34" data-name="Path 34" class="cls-2" d="M237,580.51a184.176,184.176,0,0,1-2.78-20.93l19.87-1.44a165.5,165.5,0,0,0,2.37,18.71Z"/>
        <path id="Path_35" data-name="Path 35" class="cls-2" d="M233.82,538.48a187.447,187.447,0,0,1,2.08-21l19.63,3a166.362,166.362,0,0,0-1.76,18.78Z"/>
        <path id="Path_36" data-name="Path 36" class="cls-2" d="M240.38,496.82a184.383,184.383,0,0,1,6.88-20l18,7.2A164.886,164.886,0,0,0,259.37,502Z"/>
        <path id="Path_37" data-name="Path 37" class="cls-2" d="M256.4,457.86a184.4,184.4,0,0,1,11.28-17.77l15.08,10.52a165.619,165.619,0,0,0-9.7,16.26Z"/>
        <path id="Path_38" data-name="Path 38" class="cls-2" d="M280.92,423.77a185.4,185.4,0,0,1,15-14.67l11.39,12.59a167.243,167.243,0,0,0-13.09,13.8Z"/>
        <path id="Path_39" data-name="Path 39" class="cls-2" d="M312.48,396.31a178.621,178.621,0,0,1,17.88-10.79l7.38,13.22a173.685,173.685,0,0,0-15.88,10.64Z"/>
        <path id="Path_40" data-name="Path 40" class="cls-2" d="M349.33,376.9a174.36,174.36,0,0,1,19.78-6.34L372.69,383a176.153,176.153,0,0,0-17.95,6.89Z"/>
        <path id="Path_41" data-name="Path 41" class="cls-2" d="M389.42,366.55A184.341,184.341,0,0,1,410,364.89l.56,10.59a173.85,173.85,0,0,0-19.18,2.69Z"/>
        <path id="Path_42" data-name="Path 42" class="cls-2" d="M430.54,365.55a181.948,181.948,0,0,1,20.29,2.95l-1.42,8.13A173.618,173.618,0,0,0,430,375Z"/>
        <path id="Path_43" data-name="Path 43" class="cls-2" d="M470.59,373.73a181.783,181.783,0,0,1,19,7.41l-2.32,5.47a164.533,164.533,0,0,0-18.66-6.09Z"/>
        <path id="Path_44" data-name="Path 44" class="cls-2" d="M507.53,390.6A183.276,183.276,0,0,1,524.29,402L522,405.15a168.98,168.98,0,0,0-16.85-10.3Z"/>
        <path id="Path_45" data-name="Path 45" class="cls-2" d="M539.63,415.09a178.821,178.821,0,0,1,13.78,14.7l-1.73,1.5a175.337,175.337,0,0,0-14.11-14Z"/>
        <path id="Path_46" data-name="Path 46" class="cls-2" d="M565.46,445.88a176.5,176.5,0,0,1,10.18,17.3l-1,.51a174.761,174.761,0,0,0-10.56-16.88Z"/>
        <path id="Path_47" data-name="Path 47" class="cls-2" d="M583.83,481.47a175.306,175.306,0,0,1,6.08,19.07l-.31.09a174.515,174.515,0,0,0-6.38-18.92Z"/>
        <path id="Path_48" data-name="Path 48" class="cls-2" d="M593.86,520.15a177.432,177.432,0,0,1,1.72,19.93h0a176.668,176.668,0,0,0-1.84-19.9Z"/>
      </g>
      <path id="top" class="cls-6" d="M336.15,197.34s39.05,34,71,0,71,0,71,0,38.21,30.43,71,0,71,0,71,0L478.22,0Z"/>
      <path id="top-2" data-name="top" class="cls-6" d="M537.15,329.51s23.09,20.09,42,0,42,0,42,0,22.6,18,42,0,42,0,42,0l-84-116.68Z"/>
      <g id="c2">
        <path id="Path_49" data-name="Path 49" class="cls-7" d="M383.51,333.71H95.16a66.48,66.48,0,0,1,66.43-66.54h.9a77.65,77.65,0,0,1,148.25-41.61,55.51,55.51,0,0,1,70,35.45,56.365,56.365,0,0,1,2.29,10.1,66.53,66.53,0,0,1,89.18,62.6Z"/>
        <path id="Path_50" data-name="Path 50" class="cls-8" d="M472.24,333.71h-20l-.05-2.06h.05v-.77h-.09a45.639,45.639,0,0,0-1-7.3v10.13h-20v-20h16.6a46.409,46.409,0,0,0-5.77-9.17L457.53,292a66.33,66.33,0,0,1,8.87,14.43h0v.1h0v.06h0v.09h0v.05h0v.11h0v.08h0v.09h0v.11h0v.06h0c.16.37.31.74.46,1.12h0v.12l-11.38,4.52h2.54l9.24-3.49c.29.75.56,1.51.82,2.28h0v.15h0v.14h0v.14h0l.05.14h0v.15h0l.05.15h0v.11h0v.1h0a66.3,66.3,0,0,1,3.06,20Zm-21.1-18v.87l1.1-.42v-.88Zm-21.1,18H410v-20h20Zm-21.1,0h-20v-20h20Zm-21.1,0h-20v-20h20Zm-21.1,0h-20v-20h20Zm-21.1,0h-20v-20h20Zm-21.1,0h-20v-20h20Zm-21.1,0h-20v-20h20Zm-21.1,0h-20v-20h20Zm-21.1,0h-20v-20h20Zm-21.1,0h-20v-20h20Zm-21.1,0H199v-20h20Zm-21.1,0h-20v-20h20Zm-21.1,0h-20v-20h20Zm-21.1,0h-20v-20h20Zm-21.1,0H95.16A66.19,66.19,0,0,1,99,311.42l6.42,2.29h2.81l-8.85-3.32c.06-.17.12-.34.19-.5h0l.05-.15h0v-.1h0v-.05h0v-.1h0v-.05h0v-.05h0v-.08h0v-.9h0v-.06h0v-.05h0v-.12h0v-.05h0v-.11h0v-.06h0l.05-.12h0l.07-.18h0a1.422,1.422,0,0,1,.08-.18h0q1.19-2.69,2.6-5.25h0l.1-.17h0l.09-.17h0l.09-.17h0l.06-.11h0v-.06h0l.06-.12h0v-.05h0l.06-.11h0v-.05h0l.06-.11h0v-.05h0l.06-.11h0l.06-.11h0v-.05h0l.06-.1h0v-.05h0v-.05h0v-.06h0v-.05h0v-.05h0v-.05h0v-.05h0v-.05h0v-.06h0v-.05h0v-.05h0v-.06h0v-.05h0v-.06h0v-.05h0v-.05h0v-.05h0v-.05h0v-.05h0v-.05h0v-.05h0l.08-.11h0v-.05h0l.08-.1h0l.12-.15h0l.12-.16h0l.65-.85,15.81,12.26a45.8,45.8,0,0,0-5.21,8.46h15Zm-21.1-1.19h1.1v-.79h-1.1Zm0-15.92,1.1.4v-.88l-1.1-.42Zm11.8-12-15.6-12.51c.55-.69,1.11-1.36,1.69-2h0l.19-.21h0l.11-.13h0l.07-.08h0l.09-.1h0l.09-.1h0l.13-.14h0l.13-.13h0l.1-.1h0v-.05h0a65.527,65.527,0,0,1,5.86-5.21h0c.92-.69,1.85-1.36,2.8-2l11.23,16.55a47.73,47.73,0,0,0-10.27,9.49Zm10.91-9.91-11-16.74.7-.45h.06l.08-.05h0a66.291,66.291,0,0,1,8.53-4.44h2.02l.11-.05h0l.13-.05h.11l.14-.05h.24l.19-.08h.05l.24-.09h0l.24-.09h0l.53-.19h0l.3-.11h0l.29-.1h0l.78-.27h.06l.24-.08h0l.19-.07h.06l.19-.06h1.68l.18-.06h.06l5.5,19.23a44.849,44.849,0,0,0-5.32,1.88,46,46,0,0,0-6.58,1.96Zm13.4-6-5.18-19.32h1.77a65.56,65.56,0,0,1,10.38-1.61h5.89c-.09-.59-.16-1.18-.23-1.77L182.11,263l.18,1.32,2.48,22.83H161.7a46.578,46.578,0,0,0-12.05,1.58Zm12.48-24.43c-.09-.9-.17-1.8-.24-2.71h0v-.13h0v-.13h0v-.08h0v-.07h0V261h0v-.12h0v-1.49h0v-.05h0v-.06h0v-.05h0v-.06h0V259h0v-.06h0v-.05h0v-.06h0v-.06h0v-.12h0v-.06h0v-.06h0v-.05h0v-.06h0v-.06h0v-.06h0V258h0v-.05h0v-.06h0v-.05h0v-.06h0v-.05h0v-.06h0v-.06h0v-.12h0v-.12h0v-.05h0v-.06h0v-.05h0V257h0v-.05h0v-.06h0v-.05h0v-.06h0v-.05h0v-.06h0v-.06h0v-.06h0v-.12h0v-.12h0v-.19h0v-.11h0v-.06h0v-.05h0v-.12h0v-.11h0V255h0v-.18h0v-.18h0v-1.39h0v-.12h0V253h0v-.17h0v-.18h0v-.19h0a78.223,78.223,0,0,1,.79-8l19.77,3a58.92,58.92,0,0,0-.33,14.86l-19.89,2.09Zm20.35-17.75-19.73-3.28c.39-2.33.88-4.63,1.47-6.88h0v-.11h0v-.06h0v-.06h0v-.06h0V236h0v-.05h0v-.05h0v-.06h0v-.05h0v-.05h0v-.05h0v-.17h0v-.11h0v-.05h0v-.95h0v-.1h0v-.1h0v-.11h0v-.07h0v-.06h0v-.06h0v-.06h0v-.11h0v-.11h0a77.007,77.007,0,0,1,3.12-8.38h0l.05-.1h0l.05-.11h0v-.1h0v-.07h0v-.07h0v-.07h0v-.06l18.23,8.22a57.18,57.18,0,0,0-3.19,13.66Zm4.62-14.88L169,223.19c.51-1.08,1-2.14,1.58-3.19h0l.06-.1h0l.05-.1h0l.06-.09h0v-.1h0v-.09h0l.05-.09h0v-.05h0V219h0v-.05h0v-.06h0v-.06h0v-.11h0v-.05h0v-.05h0v-.06h0v-.06h0v-.05h0v-.05h0v-.06h0v-.06h0l.06-.09h0v-.05h0l.05-.09h0V218h0v-.06h0v-.09h0v-.09h0v-.09h0v-.06h0l.06-.09h0v-.08h0v-.05h0l.05-.08h0v-.06h0v-.05h0v-.05h0l.07-.09h0v-.05h0l.06-.1h0l.07-.09h0l.07-.1h0c0-.06.09-.12.13-.19h0l.07-.09h0c.72-1,1.47-2,2.24-3h0l.14-.18h0l.07-.09h0l.07-.08h0l.07-.08h0l.07-.09h0l.07-.09h0l.07-.09h0l15.36,12.82a57.766,57.766,0,0,0-2.55,6.11Zm8.49-13.12-15.18-13h0l.06-.06h0l.06-.07h0l.07-.08h0l.15-.17h0l.15-.16h0l.15-.17h0l.16-.17h0q1.59-1.77,3.29-3.45h0l.17-.16h0l.16-.16h0l.16-.15h0l.17-.16h0c.06,0,.11-.11.16-.16h0l.12-.12h0l.11-.11h0l.11-.1h0l.11-.1h0l.11-.1h0l.11-.1h0l.11-.1h0l.1-.09h0l.06-.06h0l.06-.05h0v-.05h.2l.05-.05h.3l.05-.05h.1l.11-.09h.05l.11-.09h0l.12-.09h.05l.12-.1h0l.12-.09h.05l.11-.09h.06l.12-.1h.05l.12-.09h0l.18-.14h0l.18-.14h0l.12-.09h.06l.12-.09h0l.06-.05h0l.12-.1h.06l.12-.09h.05l.12-.09h.06l.12-.09h0l.06-.05h0l.13-.09h.06l.12-.09H190l.12-.09h0l.12-.09h0l.12-.09h0l.12-.08h0L194,193h.6l11.37,16.46a58.06,58.06,0,0,0-10.38,9.09Zm11.7-10.38-11.15-16.61a76.144,76.144,0,0,1,7.85-4.62h0l.32-.15h0l.1-.05h0l.11-.05h.1l.1-.06h0l.1-.05h.09l.1-.05h.19l.1-.05h0l.1-.05h1.21l.1-.05h.22q2.94-1.29,6-2.36l6.52,18.91a57,57,0,0,0-12.16,5.28Zm14-6.85-6.26-19h.91a77.823,77.823,0,0,1,7.78-2h1.91a79.281,79.281,0,0,1,8.92-1l1.2,20a56.769,56.769,0,0,0-14.45,2.04Zm30.14-1.61a58.3,58.3,0,0,0-12.11-1.27c-.9,0-1.79,0-2.68.06l-.92-20h.67c.64,0,1.28,0,1.93-.05h13.91c1.13.19,2.26.4,3.37.64Zm14.65,5.3a57.26,57.26,0,0,0-13.85-5.12l4.45-19.5c.95.22,1.88.45,2.82.7h0l.22.06h11.53l.13.06h.08l.17.08h0c1.23.56,2.43,1.15,3.61,1.78Zm12.73,9.08a57.53,57.53,0,0,0-12-8.69l9.55-17.57a76.338,76.338,0,0,1,8.34,5.24h0l.11.08h.22l.1.08h0c1.79,1.34,3.53,2.75,5.2,4.23h0l.19.18h0l.1.09h0l.8.74Zm9.84,12.15a58.32,58.32,0,0,0-9.25-11.59l13.91-14.37q2.39,2.33,4.58,4.84h0l.06.06h0a2.088,2.088,0,0,1,.14.17h0l.06.06h0l.06.06h0l.08.1h0l.06.06h0l.05.06h0l.05.07h0l.09.1h0l.05.06h0v.05h0l.05.06h0l.08.09h0v.06h0v.05h0v.05h0v.05h0v.05h0v.06h0v.05h0v.05h0v.06h0v.06h0v.05h0v.06h0v.05h0v.05h0v.05h0v.05h0v.05h0v.06h0v.06h0v.05h0v.06h0v.05h0v.06h0v.06h0v.05h0v.06h0v.05h0v.06h0v.05h0v.05h0v.06h0v.05h0v.05h0v.06h0v.05h0v.05h0v.05h0v.05h0v.05h0v.05h0v.05h0v.05h0v.05h0v.05h0v.06h0l.07.11h0v.06h0v.06h0l.05.07h0l.07.11h0v.07h0v.07h0l.43.7Zm10.91,24-7.22-16.85a57.107,57.107,0,0,0-3.27-6.49l17.24-10.13a77.7,77.7,0,0,1,4.33,8.54h0v.06h.58a54.541,54.541,0,0,1,9.34-2.09l2.65,19.83a35,35,0,0,0-6.33,1.44Zm37.17-6.41a35.581,35.581,0,0,0-8.68-1.07A36.418,36.418,0,0,0,324,243l-2.24-19.87h.82c.91-.09,1.83-.16,2.75-.2h8.6a55.054,55.054,0,0,1,6.23,1h1.42Zm12.11,5.67a35.059,35.059,0,0,0-11.44-5.49l5.26-19.3h3.33l1.37.49h1.78a55.35,55.35,0,0,1,10.29,5.9Zm9.2,9.8a35.539,35.539,0,0,0-8.63-9.38l12.07-16a55.7,55.7,0,0,1,6.21,5.48h0l.08.08h0l.11.12h0a56.391,56.391,0,0,1,6,7.87Zm4.88,12.45a35,35,0,0,0-4.51-11.85l17.11-10.35q.71,1.16,1.35,2.34h0v.06h0v.06h0v.06h0v.08h0V253h0v.07h0v.07h0l.05.1h0c.16.33.31.65.46,1h0c.17.37.33.73.49,1.1h0v.11h0v.07h0v.06h0v.06h0v.06h0v.08h0v.06h0v.06h0v.06h0a54.47,54.47,0,0,1,2.76,9.8Zm3.47,26.63-3.18-24.75-.17-1.19,19.74-3.22c.09.6.18,1.19.26,1.79h0v.06h1.26l.12-.05h1.01l.64-.2h.26l.17-.05h.39l.17-.05h.26l.18-.05h0l.17-.05h0l.3-.08h.13l.18-.05h5.17a63.811,63.811,0,0,1,7.2-.92l1.46,19.94a46.15,46.15,0,0,0-12.32,2.63Zm50.48-9.91a46.82,46.82,0,0,0-11.19-1.34c-.91,0-1.82,0-2.73.07l-1.13-20c1-.06,2-.1,3-.11h5.23a66.917,66.917,0,0,1,10.5,1.52h1.09Zm13.51,5.73a46.181,46.181,0,0,0-6.59-3.42,45.516,45.516,0,0,0-6.18-2.12l5.12-19.33c.52.13,1,.28,1.54.42h1.78l.24.08h5.15l.18.07h0a66.635,66.635,0,0,1,7.81,4h0l.17.1h0l1.08.66Zm11.1,9.84q-1.37-1.63-2.88-3.15a46.061,46.061,0,0,0-7.56-6.14l10.9-16.77c.6.39,1.19.79,1.78,1.19h0l.28.2h0l.22.16h0a66.643,66.643,0,0,1,5.29,4.37h0l.28.26h0l.2.18h0l.11.11h0q1.75,1.75,3.36,3.62h0l.42.49Z"/>
      </g>
    </g>
  </g>
</svg>
