<svg xmlns="http://www.w3.org/2000/svg" width="812.124" height="731.942" viewBox="0 0 812.124 731.942">
  <defs>
    <style>
      .cls-1, .cls-2, .cls-3, .cls-4, .cls-5, .cls-6, .cls-8 {
        fill: none;
      }

      .cls-1, .cls-3 {
        stroke: #e6e6e6;
      }

      .cls-1, .cls-2, .cls-3, .cls-5, .cls-6 {
        stroke-miterlimit: 10;
      }

      .cls-1, .cls-2, .cls-3, .cls-4, .cls-6 {
        stroke-width: 20px;
      }

      .cls-2, .cls-6 {
        stroke: #000;
      }

      .cls-2 {
        stroke-dasharray: 30;
      }

      .cls-3, .cls-6 {
        stroke-dasharray: 20;
      }

      .cls-4, .cls-5 {
        stroke: #00a99d;
      }

      .cls-4 {
        stroke-linecap: square;
        stroke-linejoin: bevel;
        stroke-dasharray: 40;
      }

      .cls-5 {
        stroke-width: 5px;
        stroke-dasharray: 10;
      }

      .cls-7 {
        fill: #65d1a2;
      }

      .cls-9 {
        fill: #707070;
      }
    </style>
  </defs>
  <g id="jlogo2" transform="translate(-24.842 -29.558)">
    <path id="Path_51" data-name="Path 51" class="cls-1" d="M824.011,636.991H106.765V193.937H824.011Z"/>
    <line id="Line_5" data-name="Line 5" class="cls-2" y2="620.276" transform="translate(552.327 72.724)"/>
    <line id="Line_6" data-name="Line 6" class="cls-3" x2="620.276" transform="translate(24.842 468.965)"/>
    <path id="Path_52" data-name="Path 52" class="cls-4" d="M430.734,78.427,119.5,617.5H741.968Z"/>
    <path id="Path_53" data-name="Path 53" class="cls-5" d="M600.391,218.5,368.282,596.965H832.5Z"/>
    <circle id="Ellipse_54" data-name="Ellipse 54" class="cls-6" cx="176" cy="176" r="176" transform="translate(268.5 399.5)"/>
    <path id="top" class="cls-7" d="M360.988,226.9s39.057,33.979,71.036,0,71.037,0,71.037,0,38.213,30.434,71.036,0,71.037,0,71.037,0L503.058,29.558Z"/>
    <path id="top-2" data-name="top" class="cls-7" d="M561.988,359.071s23.094,20.091,42,0,42,0,42,0,22.595,17.994,42,0,42,0,42,0L645.992,242.386Z"/>
    <g id="c2">
      <path id="Path_54" data-name="Path 54" class="cls-8" d="M408.354,363.267H120a66.488,66.488,0,0,1,66.433-66.543h.9a77.651,77.651,0,0,1,148.253-41.61A55.5,55.5,0,0,1,407.9,300.673a66.523,66.523,0,0,1,89.18,62.593H408.354Z"/>
      <path id="Path_55" data-name="Path 55" class="cls-9" d="M497.079,363.267h-20l-.043-2.054.044,0v-.777l-.084.005a46.4,46.4,0,0,0-1.016-7.306v10.134h-20v-20h16.6a46.284,46.284,0,0,0-5.768-9.168l15.564-12.561a66.159,66.159,0,0,1,8.862,14.428h0l.015.031v0l.042.093,0,.007.013.03,0,0,.026.059,0,.006.012.027,0,.01.038.087.005.011.012.026.005.012.023.052,0,.007.011.025.006.015.011.024.006.013.019.044.007.015.01.025.006.013.023.052,0,.006.01.024.007.016.01.024.007.015.017.039.008.019.01.022.008.019.009.021.015.035.009.02.009.02.008.02.01.023.011.026.012.028.008.019.01.022.007.018.017.038,0,.01.013.031.007.015.013.031,0,.011.017.039.006.013.012.03.006.013.017.041h0l.019.044.014.034,0,.009.017.04v0q.236.559.46,1.122h0l0,.01.048.12-11.388,4.519h2.539l9.246-3.493q.429,1.136.815,2.283h0l.05.146v0l.048.146v0l.048.146v0l.047.145v0l.048.146v0l.047.146,0,0,.011.036h0l.035.108v.006l.011.034,0,0,.033.106v0l.007.02h0a66.355,66.355,0,0,1,3.056,20Zm-21.1-18v.864l1.1-.416v-.885Zm-21.1,18h-20v-20h20Zm-21.1,0h-20v-20h20Zm-21.1,0h-20v-20h20Zm-21.1,0h-20v-20h20Zm-21.1,0h-20v-20h20Zm-21.1,0h-20v-20h20Zm-21.1,0h-20v-20h20Zm-21.1,0h-20v-20h20Zm-21.1,0h-20v-20h20Zm-21.1,0h-20v-20h20Zm-21.1,0h-20v-20h20Zm-21.1,0h-20v-20h20Zm-21.1,0h-20v-20h20Zm-21.1,0h-20v-20h20Zm-21.1,0H120a66.189,66.189,0,0,1,3.822-22.285l6.421,2.285h2.813l-8.856-3.318c.063-.169.126-.336.191-.505h0l.017-.046v0l.056-.144v0l.017-.044,0-.008.015-.04,0-.006.017-.044v0l.037-.093,0-.01.015-.036,0-.013.012-.032.006-.014.014-.036,0-.009.018-.047h0l.018-.044.005-.014.013-.031.006-.016.012-.031.006-.015.013-.032,0-.014.018-.044,0-.007.015-.037.007-.018.011-.027.007-.019.011-.026.008-.019.01-.027.008-.018.013-.032.011-.029.011-.026.009-.022.009-.022.009-.023.009-.021.009-.023.009-.021.009-.024.01-.023.016-.04.009-.021.009-.024.009-.022.01-.022.008-.021.01-.024.009-.02.009-.024.009-.02.018-.044.008-.021.01-.023.009-.021.009-.023.01-.023.009-.021.01-.024.008-.02.013-.03.011-.028.012-.028.009-.02.01-.025.008-.02.011-.025.008-.019.012-.03.007-.014.018-.045h0l.024-.056.007-.016.019-.044,0-.013.049-.115,0-.012.021-.05,0-.009.051-.117,0-.009.023-.053,0-.006.052-.119,0-.007.079-.18v0l.081-.182v0q1.189-2.691,2.6-5.25h0c.033-.058.065-.117.1-.175v0l.1-.172,0-.005.1-.171,0-.006.065-.113h0l.031-.055,0-.006.064-.113v0l.03-.052,0-.008.063-.111,0-.006.028-.049.005-.008.064-.11,0-.009.027-.046.006-.011.063-.108.006-.01.026-.044.007-.012.062-.106.008-.013.024-.042.008-.013.062-.105.008-.014.024-.04.008-.014.031-.052,0-.006.028-.046.009-.016.023-.038.009-.015.03-.051.007-.012.024-.04.011-.018.022-.036.009-.016.03-.05.009-.014.023-.038.011-.018.021-.036.01-.016.03-.049.01-.017.021-.035.012-.02.021-.034.011-.017.029-.048.012-.019.019-.032.013-.022.021-.033.01-.018.03-.047.012-.021.019-.03.013-.022.021-.033.011-.018.029-.046.013-.023.018-.028.014-.023.02-.032.017-.027.023-.038.015-.023.017-.027.015-.024.018-.029.022-.036.019-.031.015-.023.017-.027.015-.024.018-.028.025-.041.017-.025.016-.027.015-.023.017-.027.014-.023.031-.047.013-.022.018-.028.014-.022.018-.028.014-.023.03-.045.015-.024.017-.027.014-.022.018-.028.013-.021.032-.049.013-.021.019-.028.013-.021.018-.028.011-.016.035-.055.013-.02.019-.029.013-.02.018-.028.02-.031.026-.039.014-.021.018-.029.013-.019.039-.06.007-.011.019-.028.014-.021.018-.028.014-.021.033-.051.012-.018.02-.03L131,326.6l.02-.029.012-.019.036-.054.011-.016.02-.03.012-.019.02-.029.011-.017.039-.058.009-.014.02-.029.013-.02.019-.029.012-.018.036-.053.012-.018.019-.029.014-.019.019-.029.012-.018L131.4,326l.012-.018.02-.029.013-.019.019-.029.013-.018.035-.052.013-.019.019-.029.014-.019.019-.029.013-.019.035-.049.013-.021.019-.027.015-.021.019-.028.018-.026.028-.041.016-.023.018-.026.016-.023.017-.025.027-.038.02-.029.016-.024.018-.025.017-.025.017-.024.029-.042.017-.024.017-.025.018-.024.018-.026.015-.022.031-.044.016-.022.018-.027.016-.023.02-.028.015-.02.031-.045.014-.02.021-.029.015-.02.023-.034.011-.015.033-.046.013-.019.022-.031.014-.018.026-.038.008-.011.034-.047.012-.017.024-.033.012-.017.031-.042,0-.008.033-.046.013-.017.024-.034.011-.015.035-.049,0,0,.034-.046.011-.015.026-.036.01-.014.036-.049,0,0,.034-.046.009-.013.03-.04.007-.01.074-.1.006-.009.034-.046,0-.005.076-.1.005-.006.116-.157,0,0,.119-.159h0q.322-.429.652-.855l15.8,12.258a46.224,46.224,0,0,0-5.208,8.462h14.98Zm-21.1-1.187,1.1.026v-.785l-1.1-.044Zm0-15.917,1.1.391v-.88l-1.1-.412ZM150.184,334.2l-15.6-12.517q.822-1.024,1.687-2.02h0l.036-.042h0c.062-.072.125-.143.187-.214l0,0,.032-.038.007-.006.03-.036.007-.007.032-.036,0-.005.113-.127v0l.035-.039.007-.008.029-.033.01-.01.027-.031.01-.011.028-.031.009-.01.03-.035.006-.006.075-.083.006-.007.03-.033.011-.012.025-.029.012-.013.025-.027.013-.015.024-.026.013-.015.025-.027.011-.013.032-.035.005-.005.036-.04.014-.015.022-.025.017-.018.019-.022.018-.019.019-.02.018-.02.018-.021.018-.019.02-.021.017-.019.019-.021.034-.037.018-.019.02-.022.016-.018.02-.021.016-.018.021-.022.016-.017.021-.023.015-.016.021-.024.014-.015.023-.024.01-.011.087-.093.009-.01.024-.026.012-.013.024-.026.012-.013.025-.026.011-.012.025-.027.01-.01.027-.029.005-.005.1-.1.005-.005.027-.028.01-.011.025-.027.011-.012.026-.027.01-.011.027-.028.008-.008.029-.03,0,0,.132-.139.007-.007.028-.029.009-.009.027-.029.009-.009.028-.029.008-.008.029-.03,0,0,.132-.138.007-.007.028-.029.009-.009.027-.028.011-.011.026-.027.01-.01.027-.028.008-.008.1-.1,0,0,.026-.027.011-.012.025-.025.013-.013.024-.025.014-.014.023-.023.015-.015.023-.024.014-.014.023-.024.01-.009.046-.047.018-.018.019-.019.019-.02.019-.019.019-.019.02-.02.019-.019.018-.019.022-.021.016-.017.026-.026.012-.012.039-.039h0l.036-.035,0,0a67.275,67.275,0,0,1,5.861-5.208h0l.039-.031h0l.039-.03h0l.038-.03h0l.037-.029,0,0,.036-.028,0,0,.035-.028.005,0,.035-.026.005,0,.033-.027.006,0,.034-.026.006,0,.032-.025.008-.006.032-.025.007-.005.031-.025.009-.007.031-.023.008-.007.03-.023.01-.008.03-.022.01-.008.028-.022.012-.009.028-.021.011-.009.027-.021.013-.01.026-.02.014-.01.025-.02.014-.011.023-.017.018-.013.018-.015.022-.016.016-.013.023-.017.016-.012.024-.018.012-.009.028-.022.007-.005.033-.025h0q1.374-1.039,2.8-2.006l11.23,16.549a47.005,47.005,0,0,0-6.818,5.645A47.539,47.539,0,0,0,150.184,334.2Zm10.9-9.916-10.953-16.734q.348-.228.7-.451l.005,0,.032-.02.009-.006.03-.019.011-.007.027-.017.015-.009.024-.016.017-.01.023-.015.018-.011.023-.015.018-.011.022-.014.02-.013.02-.012.025-.016.015-.01.034-.021.007,0,.083-.052.006,0,.036-.022.009-.006.032-.02.009-.006.033-.02.009-.005.033-.021.008-.005.034-.021.008-.005.035-.022.006,0,.037-.023.005,0,.039-.024,0,0a66.567,66.567,0,0,1,8.524-4.435h0l.041-.018.008,0,.037-.016.01-.005.035-.015.011-.005.033-.014.013-.005.032-.014.014-.006.032-.013.013-.006.032-.014.014-.006.032-.013.013-.006.034-.014.011-.005.046-.019h0l.053-.023.018-.007.036-.016.021-.008.034-.015.021-.008.036-.016.018-.007.052-.022.019-.008.035-.014.024-.01.029-.012.026-.011.028-.012.026-.01.03-.013.035-.014.038-.016.027-.011.026-.011.029-.012.024-.01.03-.012.023-.009.03-.013.023-.009.056-.023.023-.009.03-.012.023-.01.031-.012.021-.009.032-.013.02-.008.118-.047.015-.006.035-.014.017-.007.035-.014.017-.007.036-.014.01,0,.128-.051.012-.005.038-.015.014-.005.039-.016.01,0,.136-.053h0l.039-.016.013-.005.038-.014.014-.006.039-.015.007,0,.136-.052.005,0,.042-.016.01,0,.042-.016.007,0,.187-.072h0l.044-.017.006,0,.239-.09h0l.047-.018h0l.24-.089h0c.178-.066.357-.131.535-.195h0c.1-.036.195-.07.293-.105h0l.293-.1h0q.392-.137.784-.268h0l.047-.015h0l.242-.081h0l.047-.015h0l.192-.063,0,0,.044-.014.008,0,.044-.014h0l.19-.061.01,0,.041-.013.011,0,.042-.013.005,0,.138-.043.008,0,.04-.013.014,0,.038-.012.015-.005.039-.012h0l.091-.028.007,0,.037-.012.018-.005.034-.011.019-.006.035-.011.019-.005.115-.036.024-.007.03-.009.025-.008.029-.009.028-.009.026-.008.033-.009.029-.009.045-.014.023-.007.033-.01.024-.007.033-.01.023-.007.037-.011.018-.005.056-.017h0l.056-.017.015,0,.042-.013.016-.005.042-.012.015,0,.053-.016h0l.117-.034.008,0,.051-.015.008,0,.056-.016h0l.181-.052h0l.061-.018L173.75,318.5a46.588,46.588,0,0,0-12.661,5.789Zm13.4-5.993-5.17-19.32h.007l.046-.012h.005l.046-.013h0l.044-.012h.005l.045-.012.008,0,.041-.011h.006l.044-.012.01,0,.039-.01.007,0,.043-.011.012,0,.037-.01.008,0,.041-.01.015,0,.036-.01.012,0,.037-.009.015,0,.038-.01.013,0,.033-.009.016,0,.04-.01.013,0,.029-.008.018,0,.037-.01.02-.005.023-.005.022-.006.035-.009.022-.005.019-.005.024-.006.012,0,.047-.012.014,0,.046-.012.013,0,.027-.007.012,0,.052-.013h.008l.027-.007.012,0,.055-.014h0l.031-.007h.005l.061-.015h0l.032-.007h0l.062-.015h0l.1-.023h0l.1-.024h0a66.062,66.062,0,0,1,10.383-1.616h0l.1-.007h.005l.1-.007h0l.063,0h0l.032,0h.005l.062,0h0l.033,0h0l.064,0h0l.1-.006h0l.1-.006h.007l.1-.007h.008l.093-.006h.012l.053,0h.049l.056,0h.05l.052,0h.052l.046,0h.058l.04,0,.021,0h.043l.041,0h.044l.02,0,.04,0h.071l.032,0h.044l.036,0h.067l.036,0h.067l.037,0h.073l.031,0h.181l.027,0h.021l.03,0h.28l.041,0h.063l.04,0h.169l.039,0h2.161q.393,0,.786.005h0q-.126-.885-.233-1.775l19.859-2.376.173,1.319,2.479,22.827H186.544A46.671,46.671,0,0,0,174.487,318.292Zm12.487-24.432q-.141-1.348-.237-2.711h0l-.009-.129h0l-.008-.125v-.007l0-.04v0l-.006-.081v0l0-.039v-.011l-.005-.07v-.012l0-.035v-.016l0-.064v-.015l0-.034v-.018l0-.06,0-.018v-.033l0-.019,0-.059v-.019l0-.029v-.027l0-.028,0-.046v-.028l0-.027v-.028l0-.047v-.025l0-.031v-.026l0-.049v-.021l0-.033v-.026l0-.04,0-.029,0-.036v-.024l0-.041v-.023l0-.043v-.02l0-.045v-.016l0-.048v-.021l0-.042v-.014l0-.052v-.022l0-.04v-.016l0-.054v-.017l0-.043v-.015l0-.054v-.017l0-.043v-.016l0-.055v-.014l0-.045V288.8l0-.055v-.075l0-.056v-.009l0-.05v-.013l0-.058v-.005l0-.054v-.012l0-.059v-.071l0-.117v-.013l0-.058h0l0-.06v-.011l0-.054v-.005l0-.059v-.2l0-.056v-.594l0-.116v-.015l0-.115v-1.177h0v-1.979l0-.048v-.14l0-.046v-.265l0-.11v-.075l0-.114v-.067l0-.12v-.06l.005-.128v-.011l.007-.175v-.009l.008-.18h0l.009-.184h0a77.694,77.694,0,0,1,.791-8l19.775,2.993a58.714,58.714,0,0,0-.333,14.854l-19.89,2.094Zm20.35-17.754-19.73-3.274q.581-3.5,1.469-6.889v0l.03-.112v0l.015-.056h0l.015-.056v0l.015-.056v0l.014-.054v0l.015-.055,0-.007.013-.051v0l.015-.055,0-.006.013-.051v0l.014-.051,0-.013.014-.049v0l.015-.052,0-.011.028-.1,0-.012.014-.051v0l.013-.047,0-.014.013-.049,0-.011.011-.04,0-.015.013-.048,0-.014.01-.036.005-.018.013-.045,0-.019.009-.031.005-.02.013-.044,0-.019.009-.033.006-.019.012-.042.006-.024.008-.025.01-.036.008-.028.007-.026.007-.025.01-.034.009-.031.006-.023.008-.028.011-.036.007-.026.007-.024.008-.028.011-.038.007-.023.008-.026.006-.024.013-.043.006-.019.008-.028.006-.022.013-.045.006-.019.028-.1.005-.016.029-.1,0-.014.03-.1,0-.007.019-.064,0-.007.01-.032,0-.014.017-.058,0-.009.011-.035v0l.02-.065,0-.009.011-.034v0l.019-.065,0-.01.032-.1,0-.006.034-.109h0a76.982,76.982,0,0,1,3.122-8.39h0l.046-.1v0l.046-.1h0l.047-.105h0l.03-.068,0,0,.015-.033v0l.03-.066v0l.015-.034h0l.029-.064,0-.009.031-.067,18.231,8.224A57.146,57.146,0,0,0,207.324,276.106Zm4.622-14.879-18.112-8.482q.756-1.614,1.581-3.183v0l.053-.1,0-.006.052-.1,0,0,.052-.1,0-.008.051-.094.005-.01.049-.093.007-.012.049-.092.006-.011.024-.045,0,0,.023-.044.007-.013.024-.044v0l.023-.043.009-.016.02-.037.007-.013.02-.036.01-.018.018-.034.008-.015.02-.038.009-.015.02-.036.008-.015.019-.035.01-.018.018-.034.009-.016.02-.036.009-.017.02-.036.006-.011.021-.037.01-.02.017-.03.011-.02.019-.034.01-.019.016-.029.013-.022.017-.031.011-.021.015-.027.015-.026.016-.029.011-.021.015-.026.016-.028.014-.026.014-.024.011-.019.02-.037.013-.023.013-.023.011-.02.023-.04.009-.018.015-.025.01-.018.024-.042.009-.017.015-.025.01-.019.023-.041.01-.016.015-.028.008-.013.027-.048.008-.014.015-.026.009-.016.025-.044.009-.015.014-.026.01-.018.026-.045.008-.013.016-.028.007-.012.031-.055,0,0,.017-.03.007-.011.029-.051.007-.011.016-.029.006-.011.032-.054,0-.007.016-.029.007-.012.031-.053L197,246.7l.016-.028.008-.013.029-.051.006-.009.016-.029.007-.011.031-.054.005-.007.017-.029.006-.011.032-.055,0-.006.017-.029.007-.012.033-.056,0,0,.018-.03.005-.009.054-.092.006-.01.029-.049.008-.014.017-.027.007-.011.032-.055,0-.006.016-.028.008-.014.032-.053,0-.006.017-.028.007-.013.053-.089.006-.009.033-.055,0-.007.017-.029.007-.011.035-.058v0l.017-.028.008-.013.054-.09.005-.007.056-.093,0-.007.035-.058,0-.005.017-.029.007-.01.054-.089.007-.012.035-.057,0,0,.017-.028.008-.013.054-.087.007-.012.032-.052.005-.008.017-.027.008-.014.053-.085.01-.015.029-.047.007-.011.016-.026.009-.015.053-.085.009-.014.025-.04.012-.02.015-.023.012-.019.019-.03.016-.026.016-.025.01-.017.025-.039.012-.019.015-.024.011-.017.015-.024.021-.033.015-.025.012-.017.018-.03.018-.029.014-.021.013-.021.014-.021.022-.035.013-.021.015-.023.012-.019.023-.036.014-.021.013-.021.013-.021.022-.034.015-.023.014-.022.013-.019.023-.037.013-.02.014-.022.013-.02.022-.035.014-.021.015-.023.012-.019.024-.036.012-.02.016-.024.011-.017.024-.037.013-.019.016-.025.011-.018.025-.037.011-.018.016-.025.012-.017.024-.038.012-.017.017-.027.011-.016.025-.038.011-.017.017-.027.011-.015.024-.038.012-.018.018-.027.01-.015.026-.04.009-.013.02-.03.009-.014.026-.039.01-.015.02-.03.009-.014.026-.04.009-.012.021-.032.008-.012.027-.041.009-.013.02-.031.009-.013.027-.041.007-.01.024-.035.006-.01.028-.042.007-.01.024-.035.007-.01.028-.042.007-.011.022-.032.008-.013.027-.04.009-.013.021-.031.009-.013.028-.041.006-.009.024-.036.007-.01.028-.042.006-.008.025-.037.006-.009.03-.043,0-.006.027-.041,0-.005.03-.044,0-.007.027-.039.005-.007.03-.045,0,0,.028-.041.005-.006.03-.044,0-.006.028-.041,0-.005.031-.045,0,0,.029-.041,0-.006.031-.045,0,0,.029-.041,0-.005.064-.091,0,0,.032-.046h0l.032-.046,0,0,.066-.093v0l.066-.094h0l.067-.1h0l.134-.19h0l.067-.1h0q1.085-1.521,2.238-2.987h0l.144-.183h0l.072-.091h0l.071-.089,0,0,.07-.088,0,0,.07-.087,0,0,.069-.086,0-.006.033-.041h0l.034-.042.006-.007.067-.084.006-.007.031-.039,0,0,.033-.04.008-.01.03-.037,0,0,.032-.039.008-.01.028-.035.006-.007.031-.038.009-.011.029-.035,0-.006.031-.037.011-.014.024-.029.01-.013.029-.035.011-.013.023-.028.014-.017.024-.03.015-.017.018-.022.023-.027.018-.023.016-.019.018-.022.019-.022.022-.027.015-.019.016-.019.025-.03.018-.021.016-.02.015-.018.026-.031.017-.02.017-.02.005-.007L219.9,248.735A57.746,57.746,0,0,0,211.946,261.227Zm8.484-13.116-15.173-13.03.019-.023.015-.017.028-.033.014-.015.058-.068.009-.01.029-.034.014-.016.029-.034.012-.014.061-.07.007-.008.032-.036.01-.013.033-.037,0,0,.071-.083,0,0,.034-.038.009-.011.147-.167.005-.005c.049-.057.1-.113.149-.17l0-.005.151-.17,0,0,.154-.171v0q1.595-1.776,3.292-3.452h0l.164-.162,0,0c.055-.055.107-.106.163-.16l0,0,.162-.158.005,0,.163-.157.005-.006.163-.156.005-.005.12-.115.005,0,.037-.035.009-.009.115-.109.008-.008.037-.035.009-.008.114-.109.01-.009.036-.033.01-.01.114-.107.01-.01.036-.033.011-.01.112-.1.012-.012.035-.032.012-.012.111-.1.014-.014.033-.031.014-.012.109-.1.016-.015.033-.03.015-.014.107-.1.018-.017.031-.028.018-.017.063-.057.011-.01.03-.027.02-.019.03-.027.02-.018.054-.049.019-.017.029-.027.022-.019.029-.027.019-.017.056-.05.019-.017.029-.026.022-.02.028-.025.023-.021.047-.042.025-.022.028-.025.024-.021.027-.024.028-.025.038-.035.031-.027.024-.021.028-.025.025-.022.033-.029.032-.029.033-.029.024-.021.029-.026.023-.02.037-.033.03-.026.033-.029.023-.02.03-.027.023-.019.048-.043.016-.013.036-.032.022-.019.033-.029.019-.017.051-.043.014-.013.039-.034.019-.016.036-.031.018-.016.051-.044.013-.012.04-.033.019-.017.037-.032.017-.014.05-.044.016-.014.039-.032.018-.016.038-.033.016-.013.052-.045.014-.012.039-.033.019-.016.04-.034.013-.012.053-.044.014-.012.041-.034.016-.015.042-.035.013-.011.053-.044.014-.012.041-.035.016-.013.046-.039.008-.007.055-.045.011-.01.045-.037.013-.011.05-.042,0,0,.056-.047.011-.009.044-.037.014-.011.054-.045h0l.057-.047.01-.008.048-.04.009-.007.114-.094.009-.007.048-.04.011-.008.112-.093.012-.009.047-.039.009-.007.115-.093.009-.008.049-.04.009-.007.115-.093.009-.007.051-.042.006,0,.116-.094.009-.007.052-.041.006,0,.116-.093.009-.007.053-.043,0,0,.117-.092.01-.009.051-.04.007-.005.117-.092.008-.007.176-.138.008-.006.177-.138.008-.007.119-.092h0l.058-.045.006-.005.121-.093h0l.058-.044.006,0,.12-.092,0,0,.057-.044.006,0,.121-.093h0l.057-.044.007,0,.121-.092,0,0,.057-.044.005,0,.122-.092,0,0,.058-.043,0,0,.122-.091.005,0,.057-.042,0,0,.121-.091.007-.005.054-.039.008-.006.119-.089.009-.006.053-.039.007-.005.12-.088.009-.007.054-.039.006,0,.12-.087.01-.008.053-.038.007,0,.12-.087.01-.007.053-.038.007-.006.061-.043,0,0,.053-.039.015-.01.048-.035.011-.007.058-.042.01-.007.048-.035.015-.01.05-.036.009-.006.059-.043.008,0,.05-.036.016-.011.049-.034.009-.007.058-.041.014-.01.045-.032.017-.012.046-.032.013-.009.057-.04.015-.011.043-.03.019-.013.045-.032.013-.009.055-.038.021-.015.037-.026.022-.015.04-.028.02-.014.052-.036.023-.015.034-.024.015-.01,11.374,16.45A58.059,58.059,0,0,0,220.43,248.111Zm11.7-10.388-11.141-16.61a77.631,77.631,0,0,1,7.846-4.619l0,0,.313-.159h0l.1-.052,0,0,.1-.051,0,0,.1-.051,0,0,.1-.05,0,0,.1-.05.006,0,.1-.05.005,0,.1-.05.006,0,.1-.048.006,0,.1-.048.009,0,.1-.048.007,0,.1-.048.008,0,.1-.047.008,0,.049-.024h0l.046-.022.012-.006.1-.046.01,0,.048-.023h0l.048-.023.007,0,.1-.047.007,0,.049-.023,0,0,.045-.021.009-.005.049-.023h0l.047-.023.008,0,.049-.023,0,0,.046-.021.008,0,.049-.023h0l.048-.022.007,0,.049-.023.005,0,.043-.02.011-.005.048-.023,0,0,.044-.021.009,0,.049-.022,0,0,.046-.022.007,0,.05-.023,0,0,.045-.021.008,0,.049-.023.006,0,.045-.02.007,0,.05-.023h0l.049-.022,0,0,.051-.023,0,0,.047-.022.006,0,.05-.022,0,0,.049-.023h0l.051-.023.006,0,.045-.02.007,0,.049-.023.006,0,.049-.022h0l.052-.023,0,0,.05-.022h0l.052-.024h0l.106-.047h0l.106-.047h0l.107-.048h0q2.949-1.3,6.023-2.365l6.523,18.906A57.382,57.382,0,0,0,232.128,237.723Zm14.01-6.85-6.253-19,.009,0,.011,0,.043-.015.009,0,.046-.015.017-.005.041-.013.017-.006.037-.012.019-.006.04-.013.023-.008.028-.009.021-.007.041-.013.024-.008.024-.007.042-.014.02-.006.03-.01.015,0,.053-.017.013,0,.031-.01.012,0,.061-.019.005,0,.107-.034h0l.109-.035h0a76.958,76.958,0,0,1,7.781-2.01l.007,0,.106-.021.012,0,.06-.012.011,0,.031-.006.018,0,.052-.01.016,0,.031-.007.017,0,.051-.01.018,0,.03-.005.022-.005.043-.008.025-.005.025,0,.041-.008.027,0,.025-.005.023-.005.044-.008.023-.005.031-.006.026-.005.038-.007.021,0,.04-.008.02,0,.038-.008.019,0,.047-.009.014,0,.039-.007.017,0,.049-.01.012,0,.043-.008.012,0,.051-.01.012,0,.047-.009h.008l.052-.01.011,0,.108-.02h.01l.054-.01h.005l.052-.01h.007l.056-.01h0l.057-.011h0l.057-.01h0l.116-.021h0a77.856,77.856,0,0,1,8.921-1.051l1.192,19.964A57.5,57.5,0,0,0,246.138,230.873Zm30.143-1.6a58.122,58.122,0,0,0-12.1-1.269q-1.353,0-2.69.061l-.912-19.979.274-.012h.007l.038,0h.111l.033,0h.084l.041,0h.018l.055,0h0q.965-.036,1.934-.049h2.965l.058,0h.076l.116,0h.015l.051,0h.008l.06,0h.011l.049,0h.014l.119,0h.011l.051,0h.011l.059,0h.008l.053,0h.012l.12,0h.01l.054,0h.007l.063,0h0l.058,0h.013l.055,0h0l.06,0h.012l.05,0h.011l.06,0h0l.056,0h.013l.056,0h0l.061,0h.009l.052,0h.011l.12.006h.01l.056,0h0l.06,0h.01l.051,0h.012l.119.006h.012l.055,0h0l.061,0h.008l.053,0h.01l.121.007h.01l.054,0h.007l.062,0h0l.058,0h.009l.121.007h.009l.056,0h.005l.062,0h0l.061,0h.006l.124.008h0l.058,0h.005l.123.008h.008l.123.008h.005l.059,0h0l.125.009h.005l.125.009h0l.06,0h0l.125.009h0l.191.015h0l.127.009h0l.126.01h0l.061,0h.005l.125.01h0l.19.015h0l.127.011h0l.189.016h0l.126.012h0l.063.006h0l.127.011h0l.19.018h0l.125.012h0l.125.013h0l.063.006h0l.125.013h0l.125.013h0l.063.006h0l.124.013h.005l.124.013h0l.061.007h0l.124.014h0l.187.021h0l.124.015h0l.186.021h.006l.122.014h.005l.058.007h0l.122.015h.006l.122.014h0l.059.007h0l.123.015h.006l.121.015h.007l.054.007h.008l.119.015h.009l.057.007h0l.06.008h.008l.052.007.01,0,.118.015.01,0,.052.007h.007l.059.007.009,0,.049.006.013,0,.114.016.014,0,.048.006.011,0,.056.007.013,0,.045.007.015,0,.056.008h0l.057.008.014,0,.046.006.012,0,.056.008.013,0,.043.006.019,0,.047.007h.009l.053.008.02,0,.039.005.018,0,.053.008.017,0,.039.006.021,0,.039.006.017,0,.052.008.02,0,.037.006.02,0,.052.008.019,0,.036.006.024,0,.033.005.023,0,.048.008.026,0,.029,0,.027,0,.032.005.043.007.026,0,.029,0,.026,0,.058.009.016,0,.034.006.018,0,.035.005.013,0,.067.011.015,0,.036.006.015,0,.117.019.014,0,.038.006h.005l.085.014h0l.042.007h.006l.128.021h.005q1.7.285,3.372.642Zm14.651,5.3a57.147,57.147,0,0,0-13.855-5.125l4.453-19.5q1.42.324,2.82.7h0l.042.011h0l.215.058h0l.038.011h0l.039.01.005,0,.039.01h0l.129.035h0l.041.011h0l.037.01.008,0,.035.009.007,0,.035.01.007,0,.038.011h0l.127.036.008,0,.033.009.011,0,.03.009.012,0,.03.009.011,0,.032.009.01,0,.083.023,0,0,.037.01.011,0,.029.008.014.005.028.007.014,0,.026.008.015,0,.028.008.013,0,.029.008.012,0,.041.012h.005l.035.01.014,0,.027.008.016.005.025.007.017.005.023.007.017,0,.024.007.018.005.024.007.016,0,.029.008.011,0,.04.011.015,0,.025.008.018.005.023.007.017,0,.024.007.017.005.025.008.015,0,.026.008.015,0,.032.01.008,0,.041.012.009,0,.031.009.018.006.021.006.021.006.02.006.019.006.022.007.019,0,.022.007.018.005.022.007.019.006.032.009.018.006.028.008.02.006.02.007.023.006.016.005.024.008.016.005.024.007.016,0,.024.007.015.005.024.007.017.005.053.017.007,0,.025.007.015.005.023.007.017.006.023.007.016.005.025.007.014.005.025.007.014.005.026.008.013,0,.088.027.015.005.024.008.015,0,.024.008.017.005.022.007.018.006.022.007.017,0,.023.007.016.005.024.008.015.005.051.016.01,0,.024.008.017.005.022.007.017,0,.023.008.016,0,.025.008.014,0,.026.008.012,0,.026.009.012,0,.063.02h0l.028.009.011,0,.026.008.014.005.025.008.014,0,.026.009.014,0,.025.008.014,0,.025.008.012,0,.093.03.01,0,.025.008.015.005.023.007.017.006.022.007.017.006.024.007.015,0,.024.008.015,0,.025.009h0l.069.023h0l.025.009.015,0,.024.008.015,0,.023.007.018.006.021.007.019.007.02.006.022.007.018.007.019.006.081.027.017.006.022.007.017.006.021.007.019.007.021.007.019.006.021.007.019.007.02.006.021.008.019.006.032.011.024.008.021.007.021.007.018.007.022.007.017.006.021.007.02.007.019.006.022.008.018.006.02.007.02.007.022.008.029.01.026.009.018.006.022.007.018.007.021.007.02.007.02.007.019.006.021.008.019.006.021.008.018.006.022.008.027.009.029.01.021.008.017.006.023.007.017.007.021.007.019.007.019.006.022.008.018.006.021.008.019.006.022.008.017.006.038.014.011,0,.029.01.017.006.022.008.019.007.021.007.017.006.024.009.015,0,.025.009.015.005.026.01.014.005.039.014h0l.04.014.013.005.026.009.017.006.022.008.017.007.023.008.017.006.024.009.015.005.026.009.014.006.029.01.01,0,.039.014.01,0,.03.011.014,0,.025.009.016.006.024.008.016.006.023.009.017.006.025.009.014.005.029.011.01,0,.04.014.007,0,.032.012.014.005.026.01.014.005.025.009.016.006.023.008.017.007.023.008.016.007.024.009.016,0,.033.013.006,0,.038.014.016.006.023.009.017.006.023.009.017.006.023.009.016.006.023.009.017.006.025.009.013.005.03.012.01,0,.039.015.008,0,.031.012.014.005.026.01.015.006.023.009.017.006.023.009.016.006.024.009.015.006.028.01.011,0,.04.015h0l.035.014.011,0,.028.011.014,0,.025.01.015.006.025.009.015.006.024.01.015.005.026.01.014.006.036.014h0l.04.015.009,0,.031.012.011,0,.027.01.015.006.024.01.016.006.023.009.015.006.026.01.014,0,.028.011.011.005.039.015.011,0,.028.011.014.006.024.01.017.006.022.009.018.007.021.008.017.007.023.009.016.007.025.01.014.005.036.015.011,0,.031.012.011,0,.028.012.013.005.026.01.014.006.025.01.015.006.024.01.015.006.026.01.013.005.032.013.007,0,.038.015.012.005.028.011.012.005.027.011.013.006.026.01.015.006.023.009.016.007.024.01.015.006.026.01.013.006.038.015.009,0,.029.012.016.006.023.01.017.007.021.008.018.008.022.008.017.007.021.009.017.007.025.01.014.006.034.014.014.006.028.012.015.006.023.009.019.008.02.009.017.007.022.009.017.007.022.009.017.007.024.01.014.006.077.032.011,0,.028.011.015.007.022.009.018.007.021.009.018.008.021.008.017.008.023.009.015.007.028.012.01,0,.039.016.012.005.025.011.019.008.02.008.018.008.02.008.019.008.02.009.017.007.023.01.015.007.027.011.011,0,.039.016,0,0,.035.015.014.006.024.01.017.007.021.009.019.008.018.008.021.009.017.008.02.008.02.009.018.008.021.009.034.014.02.009.021.009.016.007.021.009.018.008.02.009.017.007.021.009.017.007.022.01.016.007.021.009.015.007.087.038.008,0,.025.012.013.005.025.011.012.005.025.011.013.006.024.011.013,0,.024.011.015.007.023.01.012.005.05.022.01,0,.024.01.014.006.022.01.016.007.022.01.015.007.023.01.014.006.023.011.014.006.025.011,0,0,.092.041.012.005.025.011.013.006.025.012.011.005.026.011.011,0,.026.012.01,0,.028.013h0l.136.062,0,0,.03.013.007,0,.029.014.008,0,.028.013.007,0,.031.013h0l.175.08h0l.033.015h0l.033.015h0q1.83.843,3.608,1.778Zm12.725,9.077a57.836,57.836,0,0,0-12.005-8.692l9.554-17.571a77.754,77.754,0,0,1,8.339,5.246l.006,0,.026.019.006,0,.026.019.008.006.024.018.009.006.024.017.009.007.11.08.011.007.021.016.012.009.02.014.013.01.02.014.015.011.016.012.018.013.016.012.018.013.015.011.017.012.026.019.024.018.008.006.025.018.012.009.022.016.012.009.021.016.013.009.023.017.009.007.025.018.01.007.025.019.009.006.027.021.006,0,.1.077h0l.033.024,0,0,.032.023,0,0,.031.023,0,0q2.691,2.005,5.2,4.231h0l.193.172,0,0,.028.025,0,0,.026.023.007.007.026.022.006.006.024.022.008.007.024.022.008.006.029.027h0l.03.028.011.01.02.017.015.014.015.013.016.015.014.012.019.017.01.01.019.017.012.011.019.017.01.009.02.018.008.008.1.093.008.007.025.022,0,0,.024.022.005,0,.026.023,0,0,.026.024,0,0q.4.368.8.74ZM313.5,255.8a58,58,0,0,0-9.252-11.589l13.908-14.372q2.4,2.317,4.589,4.836h0l.056.064h0l.141.164,0,0,.053.061.006.007.052.06,0,0,.085.1h0l.054.063.006.006.049.058.007.008.052.062h0l.083.1,0,0,.049.058.01.012.045.052.009.012.047.055.007.008.081.1.008.011.044.052.012.015.042.049.012.014.04.049.014.016.024.029.016.019.037.045.016.019.036.043.016.019.037.045.015.018.037.045.015.018.025.031.015.019.036.043.018.021.035.043.016.019.034.042.018.022.028.035.024.029.023.027.029.036.022.027.02.025.032.039.018.022.033.041.018.023.022.027.031.037.02.025.03.037.021.027.022.027.029.035.022.028.024.03.027.033.019.024.032.04.019.024.027.034.024.03.022.028.027.033.023.029.02.026.031.039.018.022.032.041.019.023.029.037.02.025.026.033.023.029.026.033.017.022.033.042.017.022.033.042.017.022.03.038.019.024.027.034.019.024.03.039.015.02.035.044.015.019.034.045.015.019.032.041.016.021.029.038.016.019.034.045.013.017.035.046.015.018.035.047.013.016.033.043.015.019.032.042.01.014.036.047.014.018.036.047.012.017.037.047.012.017.035.045.009.013.036.046.01.014.037.049.012.016.036.048.012.016.038.05.009.012.036.048.008.011.037.048.01.015.036.048.013.017.036.048.011.015.038.051.009.011.036.049.007.01.037.05.011.014.037.051.01.014.038.05.01.013.039.053.005.008.037.05.008.01.038.053.009.012.038.052.01.013.038.053.008.01.04.055.005.007.038.052.006.009.039.053.009.012.038.053.009.012.038.053.008.011.04.055,0,.005.04.054.005.008.04.055.007.011.039.054.008.01.039.055.007.01.039.054,0,.006.039.055.006.009.038.053.009.013.038.053.008.012.039.054.006.009.039.055,0,0,.039.055.008.012.037.053.009.012.037.053.009.013.037.053.009.012.033.047.01.015.034.049.01.014.036.052.01.014.036.052.01.014.036.053.008.011.034.049.007.01.037.053.009.013.036.052.01.015.035.051.01.016.036.051.008.012.032.048.009.012.036.053.01.014.034.051.012.016.034.051.01.015.034.049.009.014.033.048.008.013.034.051.012.017.034.05.011.017.034.05.011.017.031.045.011.017.031.046.011.016.033.05.012.018.033.049.012.018.033.05.011.016.028.043.014.02.029.045.012.018.032.048.013.02.031.047.014.022.028.042.016.025.025.037.018.028.024.036.016.025.029.044.016.025.028.042.017.027.022.034.021.032.021.031.023.036.02.032.017.026.027.042.019.028.024.037.02.031.018.029.026.041.017.025.027.042.016.026.023.036.022.033.019.031.019.03.025.039.015.023.031.049.012.018.034.054.01.016.066.1.008.012.038.06.006.01.04.063.005.009.042.067,0,0,.068.109,0,.005.043.068,0,.006.043.069,0,0c.143.23.286.463.427.7Zm10.908,24.04L317.2,262.988a57.33,57.33,0,0,0-3.277-6.486l17.245-10.13a77.33,77.33,0,0,1,4.327,8.534v0l.012.029,0,.009.011.025.006.014.01.023.006.015.01.022.008.02.008.016.016.038h0l.034-.011.015-.005.02-.006.016-.005.019-.007.016-.005.018-.006.018-.006.015,0,.019-.006.015,0,.039-.013.013,0,.021-.007.013,0,.022-.007.012,0,.023-.008.009,0,.026-.008h0l.123-.039h0l.03-.01h0l.032-.01h0a55.11,55.11,0,0,1,9.347-2.084l2.642,19.825a35.224,35.224,0,0,0-6.324,1.446Zm37.169-6.415a35.684,35.684,0,0,0-8.677-1.064,36.183,36.183,0,0,0-4.054.227L346.6,252.716h.007l.036,0h.008l.041,0,.013,0,.035,0h.008l.044,0h.008l.037,0h.01l.089-.01h.009l.042,0h0l.048-.005h0l.047-.005h0l.095-.01h0l.241-.024h0q1.363-.134,2.746-.2h0l.1,0h0l.048,0h0l.1-.005h0l.1,0h0l.146-.006h0l.1,0h0l.047,0h0l.049,0h.051l.1,0h.006l.094,0h.053l.094,0h.5l.091,0H355.1l.032,0h.07l.033,0h.129l.033,0h.082l.027,0h.077l.037,0h.071l.027,0h.034l.03,0h.024l.025,0h.05l.033,0h.03l.028,0h.019l.027,0h.02l.056,0h.012l.028,0h.019l.028,0h.021l.043,0h.024l.028,0h.018l.029,0h.017l.1.006h.019l.028,0h.019l.1.006h.017l.028,0,.018,0,.029,0h.006l.065,0h.015l.03,0,.016,0,.031,0h0l.07.005h.012l.032,0H357l.1.008h.012l.031,0h.015l.032,0h0l.072.005h.008l.033,0h.013l.033,0h0l.071.005h.008l.032,0h.014l.032,0h.008l.069.006h.006l.033,0h.013l.034,0h0l.113.01h.011l.035,0h0l.113.01h.01l.036,0h0l.115.01h.009l.036,0h0l.114.011h.007l.037,0h0l.115.011h.006l.037,0h0l.118.012h0l.158.017h0l.039,0h0a55.152,55.152,0,0,1,6.234,1.023h0l.036.008h0l.113.025h0l.038.009h0l.112.026h0l.034.008.008,0,.107.024.005,0,.034.007.009,0,.1.024.008,0,.031.007.014,0,.1.024.011,0,.03.007.014,0,.1.023.013,0,.029.006.015,0,.029.007h0l.063.016.014,0,.027.007.018,0,.027.007.014,0,.05.013.018,0,.025.006.021,0,.024.006.019,0,.046.012.018,0,.01,0ZM373.7,279.1a35.111,35.111,0,0,0-11.441-5.492l5.258-19.3.009,0,.028.007.008,0,.029.008.011,0,.028.008.009,0,.028.007.012,0,.027.008.009,0,.029.007.01,0,.028.008.01,0,.028.008.011,0,.028.007.009,0,.028.008.011,0,.028.008.01,0,.028.007.01,0,.028.008.01,0,.028.008.01,0,.028.008.01,0,.028.008.01,0,.029.009.009,0,.028.008.011,0,.027.008.01,0,.028.008.011,0,.028.008.009,0,.028.008.012,0,.026.008.012,0,.025.007.013,0,.026.007.012,0,.025.007.012,0,.027.007.011,0,.026.007.013,0,.025.008.012,0,.026.008.012,0,.026.008.012,0,.025.008.013,0,.026.008.012,0,.025.008.013,0,.026.008.011,0,.027.008.011,0,.027.008.011,0,.026.008.012,0,.026.008.012,0,.024.008.014,0,.026.008.011,0,.027.008.01,0,.028.009.009,0,.028.008.01,0,.029.008.009,0,.028.009.01,0,.028.009.009,0,.028.009.011,0,.027.009.01,0,.027.008.011,0,.027.008.011,0,.026.009.011,0,.028.009.01,0,.027.008.011,0,.026.008.012,0,.025.008.012,0,.026.008.012,0,.025.007.013.005.026.008.011,0,.026.009.011,0,.026.009.012,0,.025.008.012,0,.027.009.011,0,.025.008.013,0,.026.008.011,0,.026.008.011,0,.027.009.011,0,.026.008.011,0,.027.009.01,0,.027.009.011,0,.027.009.01,0,.028.009.009,0,.03.01.007,0,.031.01.007,0,.029.01.009,0,.029.01.008,0,.031.011.006,0,.032.01,0,0,.033.011h0l.033.012h0l.035.011h0l.035.012h0l.035.012h0l.034.011h0l.034.012h0l.073.025h0l.037.013h0l.074.025h0l.037.013h0q.69.237,1.37.492h0l.034.013h0l.035.013h0l.072.027h0l.072.027h0l.036.013h0l.036.014h0l.072.027h0l.036.014h0l.036.014h0l.072.028h0l.035.013h0l.035.013,0,0,.034.013h0l.034.014h0l.033.013h0l.032.013.005,0,.032.012,0,0,.033.013.005,0,.032.012h0l.034.013.005,0,.031.013h.005l.032.013,0,0,.033.013h0l.031.013.007,0,.03.012.006,0,.03.012.006,0,.031.012,0,0,.032.013.007,0,.029.012.007,0,.029.012.008,0,.028.011.008,0,.029.012.007,0,.029.012.007,0,.03.012.006,0,.031.013h0l.032.013.005,0,.032.013,0,0,.032.013.006,0,.031.012.005,0,.031.012.005,0,.031.012.005,0,.031.013.005,0,.032.013,0,0,.032.013.005,0,.031.013.005,0,.031.013.005,0,.032.013,0,0,.031.013.006,0,.031.013,0,0,.031.013.006,0,.03.013,0,0,.031.013.006,0,.03.012.006,0,.03.013.006,0,.031.013.005,0,.031.013,0,0,.032.014h0l.033.014,0,0,.033.013,0,0,.031.013.006,0,.031.013.005,0,.031.013,0,0,.033.014h0l.033.014,0,0,.033.014h0l.032.014,0,0,.034.015h0l.033.015h0l.034.015h0l.033.015h0l.07.031h0l.071.031h0a55.391,55.391,0,0,1,10.292,5.9Zm9.2,9.806a35.6,35.6,0,0,0-8.634-9.386l12.068-15.948a55.772,55.772,0,0,1,6.216,5.475h0l.026.027h0l.026.027h0l.026.026h0l.026.027h0l.026.026h0l.025.027h0l.025.026,0,0,.024.024,0,0,.023.024,0,0,.025.026h0l.078.082,0,0,.024.024,0,0,.024.025,0,0,.024.025.005.005.021.022.007.007.02.021.009.009.017.019.008.008.045.047.107.113,0,0,.024.025.006.007.02.021.008.009.019.019.009.01.018.019.006.007.02.021.007.008.02.021.005.005.022.024,0,0,.022.024,0,.005.022.023.005.005.021.024.005,0,.022.023.005.006.021.023.005.005.022.023.005.006.021.023,0,0,.024.025,0,0,.024.026,0,0,.024.026,0,0,.024.026,0,0,.022.024.005.006.022.024,0,0,.023.025,0,0a55.684,55.684,0,0,1,6.026,7.873Zm4.873,12.448a35.034,35.034,0,0,0-4.5-11.85l17.11-10.355q.7,1.155,1.343,2.346l0,0,.017.03v0l.017.032,0,0,.016.03,0,.008.014.025.007.013.011.021.006.011.013.023,0,.009.014.026,0,.007.014.027,0,.007.015.028v0l.017.031,0,.006.015.028.006.011.012.022.008.015.01.02.006.011.012.023.006.011.012.023.008.014.01.019.008.016.01.019.007.014.011.02.009.017.009.017.011.021.006.012.012.022.006.013.01.018.009.017.008.016.009.018.009.018.009.016.01.019.008.016.008.015.01.02.007.014.011.02.009.018.008.015.011.022.007.013.01.02.007.014.011.02.007.014.012.023.005.011.013.025.005.01.012.023.006.011.012.024.005.011.014.028,0,.005.014.028,0,.007.013.027,0,.008.015.029,0,.005.014.028,0,.006.014.029,0,.006.012.025,0,.01.014.027,0,.007.016.031v0l.016.031,0,0,.014.028,0,.007.013.026.005.009.014.029,0,.005.014.029,0,.006.014.027,0,.008.014.028,0,.006.034.068h0l.016.031,0,0,.033.067v0l.014.03,0,.005.013.027,0,.009.015.029,0,.005.05.1h0q.235.486.463.979h0q.252.546.492,1.1h0l.014.032,0,0,.014.033v0l.015.034v0l.014.033v0l.014.032,0,0,.014.034h0l.045.106v0l.014.034h0l.015.035h0l.03.07v0l.014.034v0l.014.032v0l.014.032v0l.013.03,0,.007.013.031,0,0,.013.032,0,0,.012.03,0,.006.012.028,0,.008.012.029,0,.007.012.029,0,.007.012.029,0,.007.011.027,0,.009.011.028,0,.008.011.028,0,.008.012.028,0,.008.011.027,0,.009.011.026,0,.01.01.024.005.012.009.023.006.014.008.02.007.016.008.021.006.015.009.021.006.015.008.02.007.016.007.019.007.017.007.018.008.019.007.017.007.018.008.019.007.018.007.017.008.019.005.014.009.023.006.014.009.021.006.017.008.019.006.016.009.021.005.014.009.022.006.015.008.021.006.014.009.023,0,.01.01.027,0,.007.012.029,0,.009.011.027,0,.009.011.028,0,.006.011.03,0,.007.011.029,0,.008.011.028,0,.009.011.028,0,.007.011.03,0,0,.012.032,0,0,.012.032,0,0,.012.032,0,0,.013.032v0l.014.035h0a55.135,55.135,0,0,1,2.757,9.8Zm3.476,26.627-3.183-24.752-.173-1.183,19.739-3.22q.146.89.262,1.789v.008l.007.054h0l.039-.014.011,0,.029-.01.012,0,.029-.011.01,0,.04-.014h0l.036-.013.011,0,.029-.01.012,0,.034-.012,0,0,.041-.014h0l.036-.013.01,0,.032-.011.007,0,.081-.028.007,0,.031-.011.012,0,.033-.011,0,0,.082-.029,0,0,.037-.012.006,0,.04-.014h0l.041-.015.006,0,.035-.012.007,0,.035-.011.006,0,.081-.028h.006l.035-.013.007,0,.034-.012.007,0,.081-.028.005,0,.037-.012.005,0,.125-.042h0l.167-.056.005,0,.04-.013h0l.084-.027.005,0,.037-.013h0l.126-.042h0l.041-.013h0l.125-.041,0,0,.041-.013h0l.084-.027,0,0,.037-.012.006,0,.124-.04h0l.038-.012h0l.126-.041h0q.321-.1.643-.2h0l.128-.039h0l.04-.012h0l.129-.039h0l.171-.051h0l.128-.038h0l.041-.012h0l.127-.038h0l.041-.012h0l.127-.037h0l.172-.05h0l.128-.036,0,0,.04-.011h0l.129-.037h0l.171-.049h0l.172-.048h0l.3-.083h0l.129-.035h0l.172-.046h0l.171-.046h0l.129-.033h0l.04-.01h.005l.126-.033h.005l.038-.01h0l.085-.022h0l.04-.01h0l.128-.033h0l.04-.01h0l.126-.032.007,0,.035-.009h.007l.039-.01h0l.042-.01h0l.036-.009.009,0,.034-.008.007,0,.083-.02h.005l.036-.009.009,0,.038-.01h0l.043-.011h0l.042-.01h0l.037-.009h.007l.083-.021h.005l.035-.008.011,0,.031-.007.01,0,.081-.019.009,0,.033-.008.01,0,.033-.008.007,0,.041-.009.007,0,.033-.008.012,0,.03-.007.011,0,.032-.008.009,0,.04-.009.009,0,.031-.008.013,0,.029-.006.012,0,.039-.009h0l.04-.009.013,0,.028-.007.014,0,.028-.006.012,0,.039-.009.01,0,.03-.007.015,0,.026-.006.013,0,.033-.008h.007l.041-.01.01,0,.029-.006.015,0,.027-.006.013,0,.035-.008h.005l.038-.008.017,0,.024-.005.016,0,.025-.005.014,0,.04-.009.007,0,.032-.007.016,0,.024-.005.017,0,.023-.005.017,0,.037-.008.016,0,.023,0,.019,0,.021,0,.02,0,.019,0,.031-.007.024-.005.021-.005.018,0,.023,0,.014,0,.024-.005.015,0,.043-.009.016,0,.022-.005.017,0,.022-.005.018,0,.021,0,.036-.008.021,0,.017,0,.022,0,.018,0,.022-.005.016,0,.081-.017.015,0,.024-.005.014,0,.025-.005.008,0,.055-.011h.009l.025-.006.014,0,.024-.005.015,0,.085-.017.011,0,.025,0,.015,0,.025-.005.01,0,.086-.017.015,0,.024-.005.014,0,.024-.005.012,0,.058-.012h0l.032-.006h0l.031-.006.007,0,.1-.019h0l.029-.006.01,0,.028-.005h.007l.1-.018h.005l.032-.006h0l.134-.025h0l.032-.006h0l.134-.025h.005a66.571,66.571,0,0,1,7.206-.925l1.461,19.947a46.058,46.058,0,0,0-12.325,2.626Zm50.479-9.908a46.769,46.769,0,0,0-11.188-1.345q-1.371,0-2.729.078l-1.135-19.968q1.5-.086,3.015-.1h2l.119,0h.263l.054,0h.138l.057,0h.072l.051,0h.014l.046,0h.075l.122,0h.134l.053,0h.007l.122,0h.074l.048,0h.013l.058,0h0l.062,0h0l.057,0h.01l.051,0h.011l.053,0h.008l.183.008h.01l.052,0h.009l.057,0h0l.124.006h.005l.056,0h.008l.054,0h.008l.185.01h0l.057,0h.007l.06,0h0l.189.011h0l.063,0h0l.315.02h0a66.242,66.242,0,0,1,10.5,1.525h0l.059.013h0l.182.042h0l.056.013.008,0,.052.012.007,0,.119.028h0l.056.014.013,0,.045.01.015,0,.044.01.014,0,.054.013h0l.057.014.016,0,.04.01.021.005.035.008.023.006.034.008.023.006.041.01.032.008.035.009h.008Zm13.509,5.732a46.56,46.56,0,0,0-6.587-3.427,46.029,46.029,0,0,0-6.181-2.115l5.115-19.335q.775.205,1.546.429h0l.1.03h.005l.031.01.007,0,.057.016.01,0,.027.008.015.005.085.025.019.005.024.008.019.005.038.012.022.006.021.006.025.008.017.005.04.012.016.005.029.009.016,0,.041.013.012,0,.032.009.016.005.035.011.009,0,.042.013.014,0,.035.011.008,0,.045.013.008,0,.038.012.01,0,.092.028.006,0,.094.029.005,0,.044.013h0l.1.03,0,0,.1.03h0l.1.03h0l.048.015h0l.1.031h0l.1.031h0l.048.016h0l.1.032h0l.1.032h0l.246.08h0l.1.032h0l.146.049h0l.1.033h0l.1.033h0l.048.017h0l.1.033h0l.1.032,0,0,.046.015h0l.1.033h0l.093.032.006,0,.093.033.006,0,.041.014.006,0,.093.033.006,0,.092.032.008,0,.04.014.006,0,.044.016.008,0,.038.013.009,0,.045.016h0l.041.015.011,0,.04.014,0,0,.044.016.012,0,.034.012.011,0,.042.015.011,0,.033.012.015.005.037.014.006,0,.042.015.013.005.033.012.012,0,.042.016.011,0,.033.012.013.005.042.015.01,0,.034.013.013.005.035.013.009,0,.041.015.016.006.028.011.016.005.039.015.016.006.027.01.018.007.029.011.024.008.028.011.019.007.025.01.018.006.038.014.019.007.023.009.021.008.026.01.03.011.022.008.021.009.022.008.033.012.023.009.023.009.018.007.024.009.01,0,.05.019.015.006.026.009.013,0,.047.019.014.005.026.01.016.006.048.018.01.005.027.01.013.005.027.01.01,0,.051.02.012.005.028.011.011,0,.05.019.012.005.026.01.014.006.087.034.013,0,.027.01.011.005.051.02.011,0,.027.011.014.006.052.02.007,0,.027.011.014,0,.026.011,0,0,.056.022.012.005.027.011.013,0,.047.019.014.005.026.011.014.005.084.034.017.007.024.01.017.007.04.016.019.008.022.009.02.008.036.015.021.008.023.009.019.008.022.009.027.011.03.013.02.008.022.009.021.008.035.015.021.008.022.01.021.008.02.009.037.015.018.008.025.01.018.007.034.015.019.007.028.012.018.007.027.012.014.006.04.016.015.007.029.012.014.006.041.017.01,0,.034.015.012,0,.043.019h0l.043.018.012.005.033.014.011.005.035.015.008,0,.182.078h0a66.539,66.539,0,0,1,7.81,3.978h0l.171.1h0l.042.026h0q.539.324,1.071.658Zm11.091,9.7q-1.361-1.631-2.878-3.147a46.93,46.93,0,0,0-7.567-6.144l10.906-16.764q.9.582,1.772,1.194h0l.04.028h0l.283.2,0,0,.033.023.01.007.03.021.012.009.029.02.014.011.027.019.015.011.027.018.016.012.026.018.017.012.025.018.018.013.023.017.021.015.021.015.03.021.012.009.042.03.012.009.031.022.014.01.029.021.015.011.028.02.014.011.028.02.015.011.028.02.015.01.029.022.013.009.031.023.011.008.034.024.008.006.039.029,0,0,.218.16,0,0,.04.029,0,0,.039.029.005,0,.038.028,0,0,.04.03,0,0,.043.032h0a66.581,66.581,0,0,1,5.284,4.367h0l.039.036v0l.039.035h0l.039.036h0c.094.086.187.173.28.26h0l.037.035.005,0,.035.033.005,0,.034.032.006.006.033.031.006.006.034.031.006.006.036.034,0,0,.2.187,0,0,.036.034.005,0,.033.031.008.008.031.029.009.008.029.029.01.009.029.028.01.009.03.029.008.008.032.03.007.007.036.034,0,0,.118.114,0,0,.034.033.009.009.029.028.011.011.027.026.012.012.026.025.013.012.025.025.013.013.025.024.013.013.026.025.013.012.026.026.012.011.028.029.009.008.038.037h0l.039.038,0,0,.034.033.01.009.028.028.012.012.025.025.014.014.024.023.015.015.023.023.015.015.022.022.016.015.022.022.016.016.022.022.015.015.024.024.014.013.026.026.011.012.038.037h0l.035.036,0,0,.033.033,0,0,.033.033h0q1.75,1.758,3.355,3.624h0l.031.036,0,0,.028.033.006.007.025.029.008.01.023.026.01.012.02.024.012.014.017.02.016.019.011.013c.14.164.279.328.417.494Z"/>
    </g>
  </g>
</svg>
